<mxfile host="app.diagrams.net" modified="2024-02-24T11:49:36.367Z" agent="Mozilla/5.0 (Macintosh; Intel Mac OS X 10_15_7) AppleWebKit/537.36 (KHTML, like Gecko) Chrome/121.0.0.0 Safari/537.36" etag="BRpXaSiemS1IwKjywtjM" version="23.1.3" type="device">
  <diagram name="Page-1" id="lgLZhuFgonJulgqFBrYT">
    <mxGraphModel dx="954" dy="606" grid="0" gridSize="10" guides="1" tooltips="1" connect="1" arrows="1" fold="1" page="1" pageScale="1" pageWidth="850" pageHeight="1100" math="0" shadow="0">
      <root>
        <mxCell id="0" />
        <mxCell id="1" parent="0" />
        <mxCell id="S5xI6HX1kyDk8p73sMVr-92" value="" style="html=1;verticalLabelPosition=bottom;align=center;labelBackgroundColor=#ffffff;verticalAlign=top;strokeWidth=2;strokeColor=#000000;shadow=0;dashed=0;shape=mxgraph.ios7.icons.cloud;fillColor=#F0FBFF;" parent="1" vertex="1">
          <mxGeometry x="239" y="64" width="329" height="150" as="geometry" />
        </mxCell>
        <mxCell id="HsFARMFpup39dyQTK0el-1" value="" style="rounded=1;whiteSpace=wrap;html=1;align=center;strokeWidth=2;strokeColor=#5EC962;" parent="1" vertex="1">
          <mxGeometry x="330" y="284" width="200" height="120" as="geometry" />
        </mxCell>
        <mxCell id="HsFARMFpup39dyQTK0el-2" value="" style="rounded=1;whiteSpace=wrap;html=1;strokeWidth=2;strokeColor=#20918C;" parent="1" vertex="1">
          <mxGeometry x="235" y="465" width="120" height="90" as="geometry" />
        </mxCell>
        <mxCell id="S5xI6HX1kyDk8p73sMVr-10" value="" style="rounded=1;whiteSpace=wrap;html=1;strokeWidth=2;strokeColor=#440154;" parent="1" vertex="1">
          <mxGeometry x="160" y="284" width="90" height="120" as="geometry" />
        </mxCell>
        <mxCell id="S5xI6HX1kyDk8p73sMVr-59" value="&lt;b style=&quot;&quot;&gt;&lt;br&gt;&lt;/b&gt;" style="ellipse;whiteSpace=wrap;html=1;strokeWidth=2;" parent="1" vertex="1">
          <mxGeometry x="257" y="143" width="80" height="40" as="geometry" />
        </mxCell>
        <mxCell id="S5xI6HX1kyDk8p73sMVr-60" value="" style="ellipse;whiteSpace=wrap;html=1;strokeWidth=2;" parent="1" vertex="1">
          <mxGeometry x="353" y="143" width="80" height="40" as="geometry" />
        </mxCell>
        <mxCell id="S5xI6HX1kyDk8p73sMVr-61" value="" style="ellipse;whiteSpace=wrap;html=1;strokeWidth=2;" parent="1" vertex="1">
          <mxGeometry x="472" y="143" width="80" height="40" as="geometry" />
        </mxCell>
        <mxCell id="S5xI6HX1kyDk8p73sMVr-63" value="" style="endArrow=classic;html=1;rounded=0;exitX=0.348;exitY=0.996;exitDx=0;exitDy=0;entryX=0.2;entryY=0.002;entryDx=0;entryDy=0;entryPerimeter=0;strokeWidth=2;exitPerimeter=0;" parent="1" source="S5xI6HX1kyDk8p73sMVr-59" target="HsFARMFpup39dyQTK0el-1" edge="1">
          <mxGeometry relative="1" as="geometry">
            <mxPoint x="300" y="234" as="sourcePoint" />
            <mxPoint x="400" y="234" as="targetPoint" />
          </mxGeometry>
        </mxCell>
        <mxCell id="S5xI6HX1kyDk8p73sMVr-64" value="obs&lt;sup&gt;(1)&lt;/sup&gt;" style="edgeLabel;resizable=0;html=1;align=center;verticalAlign=middle;fontStyle=1;fontSize=12;" parent="S5xI6HX1kyDk8p73sMVr-63" connectable="0" vertex="1">
          <mxGeometry relative="1" as="geometry">
            <mxPoint x="18" y="25" as="offset" />
          </mxGeometry>
        </mxCell>
        <mxCell id="S5xI6HX1kyDk8p73sMVr-65" value="" style="endArrow=classic;html=1;rounded=0;exitX=0.298;exitY=-0.002;exitDx=0;exitDy=0;exitPerimeter=0;entryX=0.648;entryY=0.996;entryDx=0;entryDy=0;strokeWidth=2;entryPerimeter=0;" parent="1" source="HsFARMFpup39dyQTK0el-1" target="S5xI6HX1kyDk8p73sMVr-59" edge="1">
          <mxGeometry relative="1" as="geometry">
            <mxPoint x="420" y="254" as="sourcePoint" />
            <mxPoint x="520" y="254" as="targetPoint" />
          </mxGeometry>
        </mxCell>
        <mxCell id="S5xI6HX1kyDk8p73sMVr-66" value="a&lt;sup&gt;(1)&lt;/sup&gt;" style="edgeLabel;resizable=0;html=1;align=center;verticalAlign=middle;fontSize=12;fontStyle=1;labelBackgroundColor=#f0fbff;" parent="S5xI6HX1kyDk8p73sMVr-65" connectable="0" vertex="1">
          <mxGeometry relative="1" as="geometry">
            <mxPoint x="-23" y="-31" as="offset" />
          </mxGeometry>
        </mxCell>
        <mxCell id="S5xI6HX1kyDk8p73sMVr-67" value="" style="endArrow=classic;html=1;rounded=0;exitX=0.346;exitY=0.996;exitDx=0;exitDy=0;entryX=0.452;entryY=-0.002;entryDx=0;entryDy=0;entryPerimeter=0;strokeWidth=2;exitPerimeter=0;" parent="1" source="S5xI6HX1kyDk8p73sMVr-60" target="HsFARMFpup39dyQTK0el-1" edge="1">
          <mxGeometry relative="1" as="geometry">
            <mxPoint x="420" y="254" as="sourcePoint" />
            <mxPoint x="390" y="214" as="targetPoint" />
          </mxGeometry>
        </mxCell>
        <mxCell id="S5xI6HX1kyDk8p73sMVr-68" value="&lt;b style=&quot;font-size: 12px;&quot;&gt;obs&lt;sup&gt;(2)&lt;/sup&gt;&lt;/b&gt;" style="edgeLabel;resizable=0;html=1;align=center;verticalAlign=middle;fontSize=12;" parent="S5xI6HX1kyDk8p73sMVr-67" connectable="0" vertex="1">
          <mxGeometry relative="1" as="geometry">
            <mxPoint x="8" y="26" as="offset" />
          </mxGeometry>
        </mxCell>
        <mxCell id="S5xI6HX1kyDk8p73sMVr-69" value="" style="endArrow=classic;html=1;rounded=0;entryX=0.646;entryY=0.996;entryDx=0;entryDy=0;exitX=0.55;exitY=0;exitDx=0;exitDy=0;exitPerimeter=0;strokeWidth=2;entryPerimeter=0;" parent="1" source="HsFARMFpup39dyQTK0el-1" target="S5xI6HX1kyDk8p73sMVr-60" edge="1">
          <mxGeometry relative="1" as="geometry">
            <mxPoint x="460" y="214" as="sourcePoint" />
            <mxPoint x="520" y="254" as="targetPoint" />
          </mxGeometry>
        </mxCell>
        <mxCell id="S5xI6HX1kyDk8p73sMVr-70" value="a&lt;sup&gt;(2)&lt;/sup&gt;" style="edgeLabel;resizable=0;html=1;align=center;verticalAlign=middle;fontSize=12;fontStyle=1;labelBackgroundColor=#f0fbfe;" parent="S5xI6HX1kyDk8p73sMVr-69" connectable="0" vertex="1">
          <mxGeometry relative="1" as="geometry">
            <mxPoint x="-7" y="-31" as="offset" />
          </mxGeometry>
        </mxCell>
        <mxCell id="S5xI6HX1kyDk8p73sMVr-72" value="" style="endArrow=classic;html=1;rounded=0;exitX=0.348;exitY=0.996;exitDx=0;exitDy=0;entryX=0.7;entryY=0;entryDx=0;entryDy=0;entryPerimeter=0;strokeWidth=2;exitPerimeter=0;" parent="1" source="S5xI6HX1kyDk8p73sMVr-61" target="HsFARMFpup39dyQTK0el-1" edge="1">
          <mxGeometry relative="1" as="geometry">
            <mxPoint x="420" y="254" as="sourcePoint" />
            <mxPoint x="460" y="194" as="targetPoint" />
          </mxGeometry>
        </mxCell>
        <mxCell id="S5xI6HX1kyDk8p73sMVr-73" value="&lt;b style=&quot;font-size: 12px;&quot;&gt;&lt;font style=&quot;font-size: 12px;&quot;&gt;obs&lt;sup&gt;(n)&lt;/sup&gt;&lt;/font&gt;&lt;/b&gt;" style="edgeLabel;resizable=0;html=1;align=center;verticalAlign=middle;fontSize=12;" parent="S5xI6HX1kyDk8p73sMVr-72" connectable="0" vertex="1">
          <mxGeometry relative="1" as="geometry">
            <mxPoint x="-8" y="26" as="offset" />
          </mxGeometry>
        </mxCell>
        <mxCell id="S5xI6HX1kyDk8p73sMVr-74" value="" style="endArrow=classic;html=1;rounded=0;exitX=0.8;exitY=-0.005;exitDx=0;exitDy=0;exitPerimeter=0;entryX=0.652;entryY=0.996;entryDx=0;entryDy=0;strokeWidth=2;entryPerimeter=0;" parent="1" source="HsFARMFpup39dyQTK0el-1" target="S5xI6HX1kyDk8p73sMVr-61" edge="1">
          <mxGeometry relative="1" as="geometry">
            <mxPoint x="420" y="254" as="sourcePoint" />
            <mxPoint x="560" y="234" as="targetPoint" />
          </mxGeometry>
        </mxCell>
        <mxCell id="S5xI6HX1kyDk8p73sMVr-75" value="&lt;b style=&quot;font-size: 12px;&quot;&gt;&lt;font style=&quot;font-size: 12px;&quot;&gt;&amp;nbsp;a&lt;sup&gt;(n)&lt;/sup&gt;&lt;/font&gt;&lt;/b&gt;" style="edgeLabel;resizable=0;html=1;align=center;verticalAlign=middle;fontSize=12;labelBackgroundColor=#f0fbff;" parent="S5xI6HX1kyDk8p73sMVr-74" connectable="0" vertex="1">
          <mxGeometry relative="1" as="geometry">
            <mxPoint x="5" y="-30" as="offset" />
          </mxGeometry>
        </mxCell>
        <mxCell id="S5xI6HX1kyDk8p73sMVr-76" value="&lt;b&gt;&lt;font style=&quot;font-size: 20px;&quot;&gt;RLib&lt;/font&gt;&lt;/b&gt;" style="text;html=1;strokeColor=none;fillColor=none;align=center;verticalAlign=middle;whiteSpace=wrap;rounded=0;" parent="1" vertex="1">
          <mxGeometry x="460" y="294" width="60" height="30" as="geometry" />
        </mxCell>
        <mxCell id="S5xI6HX1kyDk8p73sMVr-77" value="" style="verticalLabelPosition=bottom;html=1;verticalAlign=top;align=center;strokeColor=#5EC962;fillColor=#E6FFCC;shape=mxgraph.azure.automation;pointerEvents=1;fontColor=#333333;" parent="1" vertex="1">
          <mxGeometry x="392.5" y="312.75" width="65" height="62.5" as="geometry" />
        </mxCell>
        <mxCell id="S5xI6HX1kyDk8p73sMVr-78" value="" style="sketch=0;pointerEvents=1;shadow=0;dashed=0;html=1;strokeColor=none;fillColor=#440154;aspect=fixed;labelPosition=center;verticalLabelPosition=bottom;verticalAlign=top;align=center;outlineConnect=0;shape=mxgraph.vvd.log_files;" parent="1" vertex="1">
          <mxGeometry x="185" y="334" width="40" height="50" as="geometry" />
        </mxCell>
        <mxCell id="S5xI6HX1kyDk8p73sMVr-79" value="&lt;b&gt;&lt;font style=&quot;font-size: 20px;&quot;&gt;Loggers&lt;/font&gt;&lt;/b&gt;" style="text;html=1;strokeColor=none;fillColor=none;align=center;verticalAlign=middle;whiteSpace=wrap;rounded=0;" parent="1" vertex="1">
          <mxGeometry x="175" y="291.5" width="60" height="30" as="geometry" />
        </mxCell>
        <mxCell id="S5xI6HX1kyDk8p73sMVr-81" value="" style="endArrow=classic;html=1;rounded=0;exitX=0;exitY=0.5;exitDx=0;exitDy=0;entryX=1;entryY=0.5;entryDx=0;entryDy=0;strokeWidth=5;fillColor=none;strokeColor=#525252;endWidth=22.36734693877551;" parent="1" source="HsFARMFpup39dyQTK0el-1" target="S5xI6HX1kyDk8p73sMVr-10" edge="1">
          <mxGeometry width="50" height="50" relative="1" as="geometry">
            <mxPoint x="260" y="434" as="sourcePoint" />
            <mxPoint x="310" y="384" as="targetPoint" />
          </mxGeometry>
        </mxCell>
        <mxCell id="S5xI6HX1kyDk8p73sMVr-82" value="" style="endArrow=none;dashed=1;html=1;rounded=0;strokeWidth=3;strokeColor=#B5B5B5;" parent="1" edge="1">
          <mxGeometry width="50" height="50" relative="1" as="geometry">
            <mxPoint x="150" y="244" as="sourcePoint" />
            <mxPoint x="680" y="244" as="targetPoint" />
          </mxGeometry>
        </mxCell>
        <mxCell id="S5xI6HX1kyDk8p73sMVr-83" value="&lt;b&gt;&lt;font style=&quot;font-size: 20px;&quot;&gt;Extensions&lt;/font&gt;&lt;/b&gt;" style="text;html=1;strokeColor=none;fillColor=none;align=center;verticalAlign=middle;whiteSpace=wrap;rounded=0;" parent="1" vertex="1">
          <mxGeometry x="235" y="475" width="120" height="30" as="geometry" />
        </mxCell>
        <mxCell id="S5xI6HX1kyDk8p73sMVr-88" value="&lt;font style=&quot;font-size: 16px;&quot;&gt;&lt;i&gt;Our library&lt;/i&gt;&lt;/font&gt;" style="text;html=1;strokeColor=none;fillColor=none;align=right;verticalAlign=middle;whiteSpace=wrap;rounded=0;" parent="1" vertex="1">
          <mxGeometry x="560" y="244" width="120" height="30" as="geometry" />
        </mxCell>
        <mxCell id="S5xI6HX1kyDk8p73sMVr-89" value="&lt;font style=&quot;font-size: 16px;&quot;&gt;&lt;i&gt;Environment&lt;/i&gt;&lt;/font&gt;" style="text;html=1;strokeColor=none;fillColor=none;align=right;verticalAlign=middle;whiteSpace=wrap;rounded=0;" parent="1" vertex="1">
          <mxGeometry x="560" y="214" width="120" height="30" as="geometry" />
        </mxCell>
        <mxCell id="S5xI6HX1kyDk8p73sMVr-94" value="" style="endArrow=classic;html=1;rounded=0;exitX=0.25;exitY=1;exitDx=0;exitDy=0;entryX=0.5;entryY=0;entryDx=0;entryDy=0;strokeWidth=2;endFill=1;jumpStyle=none;" parent="1" source="HsFARMFpup39dyQTK0el-1" target="HsFARMFpup39dyQTK0el-2" edge="1">
          <mxGeometry relative="1" as="geometry">
            <mxPoint x="390" y="384" as="sourcePoint" />
            <mxPoint x="490" y="384" as="targetPoint" />
          </mxGeometry>
        </mxCell>
        <mxCell id="S5xI6HX1kyDk8p73sMVr-95" value="obs&lt;sup&gt;(1..n)&lt;/sup&gt;" style="edgeLabel;resizable=0;html=1;align=center;verticalAlign=middle;fontSize=12;fontStyle=1" parent="S5xI6HX1kyDk8p73sMVr-94" connectable="0" vertex="1">
          <mxGeometry relative="1" as="geometry">
            <mxPoint x="-8" y="8" as="offset" />
          </mxGeometry>
        </mxCell>
        <mxCell id="S5xI6HX1kyDk8p73sMVr-96" value="" style="ellipse;whiteSpace=wrap;html=1;strokeWidth=2;strokeColor=#3A528B;" parent="1" vertex="1">
          <mxGeometry x="450" y="450" width="100" height="40" as="geometry" />
        </mxCell>
        <mxCell id="S5xI6HX1kyDk8p73sMVr-97" value="&lt;b style=&quot;&quot;&gt;&lt;span style=&quot;font-size: 18px;&quot;&gt;Agent&lt;/span&gt;&lt;span style=&quot;font-size: 15px;&quot;&gt;&lt;sup&gt;(1)&lt;/sup&gt;&lt;/span&gt;&lt;/b&gt;" style="text;html=1;strokeColor=none;fillColor=none;align=center;verticalAlign=middle;whiteSpace=wrap;rounded=0;" parent="1" vertex="1">
          <mxGeometry x="470" y="455" width="60" height="30" as="geometry" />
        </mxCell>
        <mxCell id="S5xI6HX1kyDk8p73sMVr-104" value="" style="ellipse;whiteSpace=wrap;html=1;strokeWidth=2;strokeColor=#3A528B;" parent="1" vertex="1">
          <mxGeometry x="510" y="490" width="100" height="40" as="geometry" />
        </mxCell>
        <mxCell id="S5xI6HX1kyDk8p73sMVr-105" value="&lt;b style=&quot;&quot;&gt;&lt;span style=&quot;font-size: 18px;&quot;&gt;Agent&lt;/span&gt;&lt;span style=&quot;font-size: 15px;&quot;&gt;&lt;sup&gt;(2)&lt;/sup&gt;&lt;/span&gt;&lt;/b&gt;" style="text;html=1;strokeColor=none;fillColor=none;align=center;verticalAlign=middle;whiteSpace=wrap;rounded=0;" parent="1" vertex="1">
          <mxGeometry x="530" y="495" width="60" height="30" as="geometry" />
        </mxCell>
        <mxCell id="S5xI6HX1kyDk8p73sMVr-110" value="" style="ellipse;whiteSpace=wrap;html=1;strokeWidth=2;strokeColor=#3A528B;" parent="1" vertex="1">
          <mxGeometry x="600" y="550" width="100" height="40" as="geometry" />
        </mxCell>
        <mxCell id="S5xI6HX1kyDk8p73sMVr-112" value="&lt;div style=&quot;&quot;&gt;&lt;span style=&quot;background-color: initial;&quot;&gt;&lt;font style=&quot;font-size: 36px;&quot;&gt;...&lt;/font&gt;&lt;/span&gt;&lt;/div&gt;" style="text;html=1;strokeColor=none;fillColor=none;align=center;verticalAlign=middle;whiteSpace=wrap;rounded=0;rotation=30;" parent="1" vertex="1">
          <mxGeometry x="585" y="515" width="60" height="30" as="geometry" />
        </mxCell>
        <mxCell id="S5xI6HX1kyDk8p73sMVr-120" value="" style="endArrow=classic;html=1;rounded=0;exitX=1;exitY=0.5;exitDx=0;exitDy=0;entryX=0;entryY=0.5;entryDx=0;entryDy=0;strokeWidth=2;" parent="1" source="HsFARMFpup39dyQTK0el-2" target="S5xI6HX1kyDk8p73sMVr-104" edge="1">
          <mxGeometry relative="1" as="geometry">
            <mxPoint x="380" y="484" as="sourcePoint" />
            <mxPoint x="480" y="484" as="targetPoint" />
          </mxGeometry>
        </mxCell>
        <mxCell id="S5xI6HX1kyDk8p73sMVr-121" value="&lt;b style=&quot;border-color: var(--border-color); font-size: 12px;&quot;&gt;S&lt;sup&gt;(2)&lt;/sup&gt;, R&lt;sup&gt;(2)&lt;/sup&gt;&lt;/b&gt;" style="edgeLabel;resizable=0;html=1;align=center;verticalAlign=middle;" parent="S5xI6HX1kyDk8p73sMVr-120" connectable="0" vertex="1">
          <mxGeometry relative="1" as="geometry">
            <mxPoint x="18" y="-1" as="offset" />
          </mxGeometry>
        </mxCell>
        <mxCell id="S5xI6HX1kyDk8p73sMVr-122" value="" style="endArrow=classic;html=1;rounded=0;exitX=1;exitY=0.25;exitDx=0;exitDy=0;entryX=0;entryY=0.5;entryDx=0;entryDy=0;strokeWidth=2;" parent="1" source="HsFARMFpup39dyQTK0el-2" target="S5xI6HX1kyDk8p73sMVr-96" edge="1">
          <mxGeometry relative="1" as="geometry">
            <mxPoint x="380" y="484" as="sourcePoint" />
            <mxPoint x="480" y="484" as="targetPoint" />
          </mxGeometry>
        </mxCell>
        <mxCell id="S5xI6HX1kyDk8p73sMVr-123" value="&lt;font style=&quot;font-size: 12px;&quot;&gt;&lt;b&gt;S&lt;sup&gt;(1)&lt;/sup&gt;, R&lt;sup&gt;(1)&lt;/sup&gt;&lt;/b&gt;&lt;/font&gt;" style="edgeLabel;resizable=0;html=1;align=center;verticalAlign=middle;" parent="S5xI6HX1kyDk8p73sMVr-122" connectable="0" vertex="1">
          <mxGeometry relative="1" as="geometry">
            <mxPoint x="-6" y="2" as="offset" />
          </mxGeometry>
        </mxCell>
        <mxCell id="S5xI6HX1kyDk8p73sMVr-124" value="" style="endArrow=classic;html=1;rounded=0;entryX=0;entryY=0.5;entryDx=0;entryDy=0;exitX=1;exitY=0.75;exitDx=0;exitDy=0;strokeWidth=2;" parent="1" source="HsFARMFpup39dyQTK0el-2" target="S5xI6HX1kyDk8p73sMVr-110" edge="1">
          <mxGeometry relative="1" as="geometry">
            <mxPoint x="380" y="484" as="sourcePoint" />
            <mxPoint x="480" y="484" as="targetPoint" />
          </mxGeometry>
        </mxCell>
        <mxCell id="S5xI6HX1kyDk8p73sMVr-125" value="&lt;b style=&quot;border-color: var(--border-color); font-size: 12px;&quot;&gt;S&lt;sup&gt;(n)&lt;/sup&gt;, R&lt;sup&gt;(n)&lt;/sup&gt;&lt;/b&gt;" style="edgeLabel;resizable=0;html=1;align=center;verticalAlign=middle;" parent="S5xI6HX1kyDk8p73sMVr-124" connectable="0" vertex="1">
          <mxGeometry relative="1" as="geometry">
            <mxPoint x="62" y="9" as="offset" />
          </mxGeometry>
        </mxCell>
        <mxCell id="S5xI6HX1kyDk8p73sMVr-130" value="" style="curved=1;endArrow=classic;html=1;rounded=0;entryX=1;entryY=0.75;entryDx=0;entryDy=0;strokeWidth=2;exitX=1;exitY=0.5;exitDx=0;exitDy=0;" parent="1" source="S5xI6HX1kyDk8p73sMVr-96" target="HsFARMFpup39dyQTK0el-1" edge="1">
          <mxGeometry width="50" height="50" relative="1" as="geometry">
            <mxPoint x="510" y="464" as="sourcePoint" />
            <mxPoint x="560" y="414" as="targetPoint" />
            <Array as="points">
              <mxPoint x="550" y="424" />
            </Array>
          </mxGeometry>
        </mxCell>
        <mxCell id="S5xI6HX1kyDk8p73sMVr-131" value="" style="curved=1;endArrow=classic;html=1;rounded=0;entryX=1;entryY=0.5;entryDx=0;entryDy=0;strokeWidth=2;exitX=1;exitY=0.5;exitDx=0;exitDy=0;" parent="1" source="S5xI6HX1kyDk8p73sMVr-104" target="HsFARMFpup39dyQTK0el-1" edge="1">
          <mxGeometry width="50" height="50" relative="1" as="geometry">
            <mxPoint x="570" y="504" as="sourcePoint" />
            <mxPoint x="590" y="414" as="targetPoint" />
            <Array as="points">
              <mxPoint x="610" y="464" />
            </Array>
          </mxGeometry>
        </mxCell>
        <mxCell id="S5xI6HX1kyDk8p73sMVr-132" value="" style="curved=1;endArrow=classic;html=1;rounded=0;entryX=1;entryY=0.25;entryDx=0;entryDy=0;strokeWidth=2;exitX=1;exitY=0.5;exitDx=0;exitDy=0;" parent="1" source="S5xI6HX1kyDk8p73sMVr-110" target="HsFARMFpup39dyQTK0el-1" edge="1">
          <mxGeometry width="50" height="50" relative="1" as="geometry">
            <mxPoint x="660" y="564" as="sourcePoint" />
            <mxPoint x="620" y="404" as="targetPoint" />
            <Array as="points">
              <mxPoint x="700" y="524" />
            </Array>
          </mxGeometry>
        </mxCell>
        <mxCell id="S5xI6HX1kyDk8p73sMVr-133" value="&lt;b style=&quot;border-color: var(--border-color); font-size: 12px;&quot;&gt;a&lt;font style=&quot;font-size: 12px;&quot;&gt;&lt;sup&gt;(1)&lt;/sup&gt;&lt;/font&gt;&lt;/b&gt;" style="edgeLabel;resizable=0;html=1;align=center;verticalAlign=middle;" parent="1" connectable="0" vertex="1">
          <mxGeometry x="543.0017265628471" y="400.0040288083989" as="geometry">
            <mxPoint y="-1" as="offset" />
          </mxGeometry>
        </mxCell>
        <mxCell id="S5xI6HX1kyDk8p73sMVr-134" value="&lt;b style=&quot;border-color: var(--border-color); font-size: 12px;&quot;&gt;&amp;nbsp;a&lt;sup&gt;(2)&lt;/sup&gt;&lt;sup style=&quot;border-color: var(--border-color);&quot;&gt;&amp;nbsp;&lt;/sup&gt;&lt;/b&gt;" style="edgeLabel;resizable=0;html=1;align=center;verticalAlign=middle;" parent="1" connectable="0" vertex="1">
          <mxGeometry x="552.0017265628471" y="371.0040288083989" as="geometry">
            <mxPoint x="-5" y="-4" as="offset" />
          </mxGeometry>
        </mxCell>
        <mxCell id="S5xI6HX1kyDk8p73sMVr-135" value="&lt;b style=&quot;border-color: var(--border-color); font-size: 12px;&quot;&gt;&amp;nbsp; a&lt;sup&gt;(n)&lt;/sup&gt;&lt;sup style=&quot;border-color: var(--border-color);&quot;&gt;&amp;nbsp;&amp;nbsp;&lt;/sup&gt;&lt;/b&gt;" style="edgeLabel;resizable=0;html=1;align=center;verticalAlign=middle;" parent="1" connectable="0" vertex="1">
          <mxGeometry x="556.0017265628471" y="341.0040288083989" as="geometry">
            <mxPoint x="-5" y="-4" as="offset" />
          </mxGeometry>
        </mxCell>
        <mxCell id="S5xI6HX1kyDk8p73sMVr-136" value="&lt;b style=&quot;border-color: var(--border-color); font-size: 16px;&quot;&gt;&lt;font style=&quot;font-size: 16px;&quot;&gt;Node&lt;sup&gt;(1)&lt;/sup&gt;&lt;/font&gt;&lt;/b&gt;&lt;b style=&quot;border-color: var(--border-color); font-size: 18px;&quot;&gt;&lt;br&gt;&lt;/b&gt;" style="edgeLabel;resizable=0;html=1;align=center;verticalAlign=middle;fontSize=12;" parent="1" connectable="0" vertex="1">
          <mxGeometry x="360.001401197003" y="183.00447351622228" as="geometry">
            <mxPoint x="-63" y="-21" as="offset" />
          </mxGeometry>
        </mxCell>
        <mxCell id="S5xI6HX1kyDk8p73sMVr-137" value="&lt;b style=&quot;border-color: var(--border-color); font-size: 16px;&quot;&gt;Node&lt;sup&gt;(2)&lt;/sup&gt;&lt;br&gt;&lt;/b&gt;" style="edgeLabel;resizable=0;html=1;align=center;verticalAlign=middle;fontSize=12;" parent="1" connectable="0" vertex="1">
          <mxGeometry x="457.501401197003" y="183.00447351622228" as="geometry">
            <mxPoint x="-63" y="-21" as="offset" />
          </mxGeometry>
        </mxCell>
        <mxCell id="S5xI6HX1kyDk8p73sMVr-138" value="&lt;b style=&quot;border-color: var(--border-color); font-size: 16px;&quot;&gt;Node&lt;sup&gt;(n)&lt;/sup&gt;&lt;br&gt;&lt;/b&gt;" style="edgeLabel;resizable=0;html=1;align=center;verticalAlign=middle;fontSize=12;" parent="1" connectable="0" vertex="1">
          <mxGeometry x="575.001401197003" y="183.00447351622228" as="geometry">
            <mxPoint x="-63" y="-21" as="offset" />
          </mxGeometry>
        </mxCell>
        <mxCell id="S5xI6HX1kyDk8p73sMVr-140" value="info" style="edgeLabel;resizable=0;html=1;align=center;verticalAlign=middle;fontSize=16;fontStyle=1" parent="1" connectable="0" vertex="1">
          <mxGeometry x="292.00073905825735" y="352.9979379500651" as="geometry">
            <mxPoint x="-4" y="-10" as="offset" />
          </mxGeometry>
        </mxCell>
        <mxCell id="zBqmXawiqXwCRxBdUxld-1" value="&lt;b style=&quot;&quot;&gt;&lt;span style=&quot;font-size: 18px;&quot;&gt;Agent&lt;/span&gt;&lt;span style=&quot;font-size: 15px;&quot;&gt;&lt;sup&gt;(n)&lt;/sup&gt;&lt;/span&gt;&lt;/b&gt;" style="text;html=1;strokeColor=none;fillColor=none;align=center;verticalAlign=middle;whiteSpace=wrap;rounded=0;" parent="1" vertex="1">
          <mxGeometry x="620" y="555" width="60" height="30" as="geometry" />
        </mxCell>
        <mxCell id="zBqmXawiqXwCRxBdUxld-3" value="" style="shape=image;verticalLabelPosition=bottom;labelBackgroundColor=default;verticalAlign=top;aspect=fixed;imageAspect=0;image=data:image/png,iVBORw0KGgoAAAANSUhEUgAAAIAAAACACAYAAADDPmHLAAAAAXNSR0IArs4c6QAABPFJREFUeF7tnV1y2zAMhOkmvYdv6Bcfwy+6oe+RNu04E3VUjSSAFEDiZ/NqyRZ2Py4hUo4vBX+pFbikrh7FFwCQHAIAAACSK5C8fCQAAEiuQPLykQAAIKQCb9fp8Uuysuft/l5K+S35nhbeK0QCXKfHnxFiPm939/q5LWCU6XugeYXBFQDWTI8AgwsAvBi/BsJDKlgG4HKdHp8j5nbpz3ze7j9KKUP6FKoWiwCEMX4jEcyBYAoAr1FPjTLLU4MJALIYbxGE4QBkNX+GYXSjOBKA9+v0+KiNz6jHjwJhCADZR72l9YPuAMD84wzrnQRdAYD5vAmsJwTdAID5PPN7N4c9ABDfmq2T0u/Rz9v9ZylFdFt7rYY2ADD/JH/azyFoAhB2Sfekp9Wna/YEagBgzq/2+fAELQhUAID5suZrNobiAMB8HfO1IBAFAObrmq8BgRgAML+P+dIQAIC+vol9mlRTKAKAp9FPCRepFg5tpwHwJNhLkEgAcOqhIAAAK4WiAa0KgDexOCMmYk1HEJxJAJdLvdGmgG+om582bgbA40iJmgCcuvZSoBUAl6OfI5RjsJtSoAkAryJFBoBT21YKAADndwHLy6f6GxEAPI9+ziiJXt8aguoEiC5Q9PpOAeBdnAwJwKlxCUFVAgAAal3Nxus1vQAACNQEtmwVswGIMPo58ZilzhkWABAwATigA4Cd6RoJsCFMFFE4IyNTrS89WFNAJlEy1QoAkqcdAAAArCkg1Bc8qUWSYFMA+Q+uyR4gkiDZmkBOvQAg6DoAd1UQAACA4w0MTAE2Nnhar4LqeZAASAAkwFKBbIk3PAGoiGqNPi/naQNH6QsABpMCAAL88NIZhgAAAFD9JRFMAWeGZ4dzkQBIACRAh4Fm9iOQAEiA3AnQe2hSTZH2iLRW7/B1AGuCAIDka+MAAACozsnWEg9TQHLgAQAAIEMJD4WSEtk8gPNrI2QCvEqL1Bhlug2kan15CwACTwEAYCOZKVEypR0SYAMQALDTz0QRJksCUHXONrN6gEiNICVMFtABQPKkqwYgSgpkSACqxiX77CkAANhc7Nm6KgBw4BUlToQegKqxOQEipAAljncAqPrWY6NqCgAA9qcBdQC8Q0AJ5DkBqNq28K1OAABgNwW6AfDaRLpOj0+7UuxfGSWS1wR43u79fjLGcwoEBqApzZtOmseXx9ESEQCqpqOkBgABngcYBoDHqYASy1uqUfVQfdqpBAAAlLz6rw8HwBsElGCeEoCqhYPf6QTw3BByBLJ6jIT5r9rEACilvF+nx4dVwaJdl0UAQj0+bhkYKfOlE+BLM09zqGWT965N0nwVAACBHlbS5qsBAAjkIdAwXxUAQCAHgZb56gCUUkJ9sVTOUv47PW/3t1KK2s6r5G3gXlWAgO/3f0dqm98jAf4VhLuDOgo0Y395JT0SABDUeV96md81AWYNkATHNPQ0fwgAuDvYB6C3+cMA+JYAewcLFkaYPxqAr/KzTwmjjJ/Z69oE7oVfVghGm28iAZZQZAHBgvGmEmCdDFFBsGS8aQCi3TK2fmmjcvmg6XATPQB15V4TweKIX2vtAgBvieDBeBdTwFEyWEsFT6YP2wugor719VEweDU9HAAb4IhvQffYmm0dAGfOc9UDnCkU524rAACSkwEAAEByBZKXjwQAAMkVSF4+EgAAJFcgefl/AaDBzp95OfPTAAAAAElFTkSuQmCC;" parent="1" vertex="1">
          <mxGeometry x="272" y="505" width="40" height="40" as="geometry" />
        </mxCell>
        <mxCell id="Y8e7mRLhrvYMSnH-TAOL-1" value="&lt;div style=&quot;&quot;&gt;&lt;span style=&quot;background-color: initial;&quot;&gt;&lt;font style=&quot;font-size: 36px;&quot;&gt;...&lt;/font&gt;&lt;/span&gt;&lt;/div&gt;" style="text;html=1;strokeColor=none;fillColor=none;align=center;verticalAlign=middle;whiteSpace=wrap;rounded=0;rotation=0;" parent="1" vertex="1">
          <mxGeometry x="423" y="148" width="60" height="30" as="geometry" />
        </mxCell>
      </root>
    </mxGraphModel>
  </diagram>
</mxfile>
